<svg xmlns="http://www.w3.org/2000/svg" xmlns:xlink="http://www.w3.org/1999/xlink" width="1000" zoomAndPan="magnify" viewBox="0 0 750 722.249982" height="963" preserveAspectRatio="xMidYMid meet" version="1.0"><defs><clipPath id="dd992c0256"><path d="M 302 115 L 391 115 L 391 246 L 302 246 Z M 302 115 " clip-rule="nonzero"/></clipPath><clipPath id="3be04886e6"><path d="M -165.632812 439.574219 L 529.03125 -161.398438 L 913.832031 283.390625 L 219.167969 884.363281 Z M -165.632812 439.574219 " clip-rule="nonzero"/></clipPath><clipPath id="07781ab9fa"><path d="M -165.632812 439.574219 L 529.03125 -161.398438 L 913.832031 283.390625 L 219.167969 884.363281 Z M -165.632812 439.574219 " clip-rule="nonzero"/></clipPath><clipPath id="4c121eb048"><path d="M 172 258 L 260 258 L 260 364 L 172 364 Z M 172 258 " clip-rule="nonzero"/></clipPath><clipPath id="f13b1d222d"><path d="M -165.632812 439.574219 L 529.03125 -161.398438 L 913.832031 283.390625 L 219.167969 884.363281 Z M -165.632812 439.574219 " clip-rule="nonzero"/></clipPath><clipPath id="066af2d337"><path d="M -165.632812 439.574219 L 529.03125 -161.398438 L 913.832031 283.390625 L 219.167969 884.363281 Z M -165.632812 439.574219 " clip-rule="nonzero"/></clipPath><clipPath id="215feed91a"><path d="M 18 257 L 460 257 L 460 702 L 18 702 Z M 18 257 " clip-rule="nonzero"/></clipPath><clipPath id="bfb24c4d28"><path d="M -165.632812 439.574219 L 529.03125 -161.398438 L 913.832031 283.390625 L 219.167969 884.363281 Z M -165.632812 439.574219 " clip-rule="nonzero"/></clipPath><clipPath id="67aef1870f"><path d="M -165.632812 439.574219 L 529.03125 -161.398438 L 913.832031 283.390625 L 219.167969 884.363281 Z M -165.632812 439.574219 " clip-rule="nonzero"/></clipPath><clipPath id="2a65c54d7c"><path d="M 178 133 L 603 133 L 603 378 L 178 378 Z M 178 133 " clip-rule="nonzero"/></clipPath><clipPath id="e8ac54edf3"><path d="M -165.632812 439.574219 L 529.03125 -161.398438 L 913.832031 283.390625 L 219.167969 884.363281 Z M -165.632812 439.574219 " clip-rule="nonzero"/></clipPath><clipPath id="ec717f205d"><path d="M -165.632812 439.574219 L 529.03125 -161.398438 L 913.832031 283.390625 L 219.167969 884.363281 Z M -165.632812 439.574219 " clip-rule="nonzero"/></clipPath><clipPath id="b732638b6b"><path d="M 288 21 L 730 21 L 730 466 L 288 466 Z M 288 21 " clip-rule="nonzero"/></clipPath><clipPath id="a67ea62cff"><path d="M -165.632812 439.574219 L 529.03125 -161.398438 L 913.832031 283.390625 L 219.167969 884.363281 Z M -165.632812 439.574219 " clip-rule="nonzero"/></clipPath><clipPath id="6717294855"><path d="M -165.632812 439.574219 L 529.03125 -161.398438 L 913.832031 283.390625 L 219.167969 884.363281 Z M -165.632812 439.574219 " clip-rule="nonzero"/></clipPath><clipPath id="a37b3cd3a7"><path d="M 359 482 L 446 482 L 446 569 L 359 569 Z M 359 482 " clip-rule="nonzero"/></clipPath><clipPath id="ce195c56e8"><path d="M -165.632812 439.574219 L 529.03125 -161.398438 L 913.832031 283.390625 L 219.167969 884.363281 Z M -165.632812 439.574219 " clip-rule="nonzero"/></clipPath><clipPath id="a1666ab405"><path d="M -165.632812 439.574219 L 529.03125 -161.398438 L 913.832031 283.390625 L 219.167969 884.363281 Z M -165.632812 439.574219 " clip-rule="nonzero"/></clipPath><clipPath id="971ca3d914"><path d="M 158 346 L 587 346 L 587 578 L 158 578 Z M 158 346 " clip-rule="nonzero"/></clipPath><clipPath id="823a2f18d3"><path d="M -165.632812 439.574219 L 529.03125 -161.398438 L 913.832031 283.390625 L 219.167969 884.363281 Z M -165.632812 439.574219 " clip-rule="nonzero"/></clipPath><clipPath id="b72d2ae125"><path d="M -165.632812 439.574219 L 529.03125 -161.398438 L 913.832031 283.390625 L 219.167969 884.363281 Z M -165.632812 439.574219 " clip-rule="nonzero"/></clipPath></defs><g clip-path="url(#dd992c0256)"><g clip-path="url(#3be04886e6)"><g clip-path="url(#07781ab9fa)"><path fill="#f29900" d="M 311.214844 115.6875 L 302.65625 236.183594 L 381.933594 245.621094 L 390.34375 127.0625 " fill-opacity="1" fill-rule="nonzero"/></g></g></g><g clip-path="url(#4c121eb048)"><g clip-path="url(#f13b1d222d)"><g clip-path="url(#066af2d337)"><path fill="#c5221f" d="M 178.929688 259.949219 L 172.015625 355.558594 L 251.535156 363.6875 L 259.109375 258.90625 L 178.929688 259.949219 " fill-opacity="1" fill-rule="nonzero"/></g></g></g><g clip-path="url(#215feed91a)"><g clip-path="url(#bfb24c4d28)"><g clip-path="url(#67aef1870f)"><path fill="#1a73e8" d="M 459.820312 287.460938 L 445.277344 488.617188 L 365.746094 482.871094 L 374.585938 360.597656 L 119.605469 342.160156 L 102.640625 576.738281 C 103.445312 584.632812 108.03125 591.503906 114.699219 595.378906 C 114.773438 595.460938 114.773438 595.460938 114.933594 595.476562 C 118.105469 597.398438 121.816406 598.558594 125.746094 598.921875 L 356.152344 615.582031 L 359.984375 562.5625 L 439.511719 568.3125 L 429.882812 701.507812 L 55.523438 674.4375 L 55.359375 674.429688 L 55.199219 674.417969 C 48.855469 673.875 43.019531 672 37.988281 668.96875 C 37.914062 668.886719 37.753906 668.875 37.679688 668.785156 C 35.820312 667.683594 33.972656 666.417969 32.371094 665.089844 C 23.171875 657.242188 17.742188 645.21875 18.679688 632.203125 L 45.765625 257.683594 L 459.820312 287.460938 " fill-opacity="1" fill-rule="nonzero"/></g></g></g><g clip-path="url(#2a65c54d7c)"><g clip-path="url(#e8ac54edf3)"><g clip-path="url(#ec717f205d)"><path fill="#c5221f" d="M 602.257812 163.789062 L 586.816406 377.316406 L 506.359375 377.46875 L 516.800781 237.71875 L 261.976562 219.292969 L 258.105469 272.792969 L 178.417969 267.03125 L 188.046875 133.835938 L 602.257812 163.789062 " fill-opacity="1" fill-rule="nonzero"/></g></g></g><g clip-path="url(#b732638b6b)"><g clip-path="url(#a67ea62cff)"><g clip-path="url(#6717294855)"><path fill="#f29900" d="M 715.648438 57.554688 C 713.972656 56.144531 712.125 54.878906 710.269531 53.777344 C 710.191406 53.6875 710.03125 53.675781 709.957031 53.59375 C 704.925781 50.5625 699.007812 48.601562 692.746094 48.144531 L 692.585938 48.132812 C 692.585938 48.132812 692.585938 48.132812 692.425781 48.125 L 318.0625 21.054688 L 309.277344 142.519531 L 388.8125 148.273438 L 391.804688 106.820312 L 622.210938 123.480469 C 626.226562 123.769531 629.851562 125 633.023438 126.925781 C 633.101562 127.015625 633.101562 127.015625 633.257812 127.027344 C 639.925781 130.898438 644.511719 137.773438 645.316406 145.664062 L 628.351562 380.242188 L 586.902344 377.242188 L 373.53125 361.8125 L 383.207031 227.976562 L 303.675781 222.226562 L 288.121094 435.101562 L 501.328125 450.519531 L 581.023438 456.28125 L 702.171875 465.042969 L 729.253906 90.515625 C 730.277344 77.433594 724.765625 65.480469 715.648438 57.554688 " fill-opacity="1" fill-rule="nonzero"/></g></g></g><g clip-path="url(#a37b3cd3a7)"><g clip-path="url(#ce195c56e8)"><g clip-path="url(#a1666ab405)"><path fill="#1a73e8" d="M 365.746094 482.871094 L 359.898438 562.636719 L 439.425781 568.386719 L 445.191406 488.695312 L 365.746094 482.871094 " fill-opacity="1" fill-rule="nonzero"/></g></g></g><g clip-path="url(#971ca3d914)"><g clip-path="url(#823a2f18d3)"><g clip-path="url(#b72d2ae125)"><path fill="#c5221f" d="M 507.121094 371.554688 L 501.417969 450.445312 L 498.382812 492.378906 L 445.359375 488.546875 L 243.550781 474.117188 L 252.390625 351.84375 L 172.699219 346.078125 L 158.09375 548.046875 L 572.304688 577.996094 L 581.097656 456.367188 L 586.800781 377.480469 L 507.121094 371.554688 " fill-opacity="1" fill-rule="nonzero"/></g></g></g></svg>