<svg xmlns="http://www.w3.org/2000/svg" xmlns:xlink="http://www.w3.org/1999/xlink" width="1000" zoomAndPan="magnify" viewBox="0 0 750 722.249982" height="963" preserveAspectRatio="xMidYMid meet" version="1.0"><defs><clipPath id="bff625d564"><path d="M 19.199219 24.613281 L 730.957031 24.613281 L 730.957031 696.664062 L 19.199219 696.664062 Z M 19.199219 24.613281 " clip-rule="nonzero"/></clipPath></defs><g clip-path="url(#bff625d564)"><path fill="#0071bc" d="M 34.039062 696.496094 L 726.0625 691.042969 C 728.761719 691.019531 730.949219 688.027344 730.949219 684.332031 L 730.949219 563.699219 C 730.949219 559.992188 728.746094 556.988281 726.03125 556.988281 L 613.191406 556.988281 L 613.191406 556.625 L 257.480469 556.625 C 250.484375 554.941406 245.09375 547.109375 244.269531 537.359375 L 308.6875 410.980469 L 311.679688 405.429688 L 398.941406 243.714844 C 401.332031 239.289062 399.015625 233.019531 394.984375 233.019531 L 271.414062 233.019531 C 269.855469 233.019531 268.386719 234.035156 267.460938 235.742188 L 241.796875 283.207031 L 27.695312 679.4375 C 23.84375 686.558594 27.597656 696.582031 34.039062 696.496094 Z M 722.460938 41.761719 L 508.363281 437.996094 L 482.695312 485.453125 C 481.769531 487.175781 480.300781 488.183594 478.738281 488.183594 L 355.167969 488.183594 C 351.140625 488.183594 348.824219 481.914062 351.214844 477.488281 L 438.480469 315.769531 L 441.46875 310.222656 L 505.886719 183.84375 C 505.0625 174.09375 499.671875 166.257812 492.675781 164.574219 L 136.964844 164.574219 L 136.964844 164.214844 L 24.121094 164.214844 C 21.40625 164.214844 19.207031 161.199219 19.207031 157.5 L 19.207031 36.871094 C 19.207031 33.175781 21.390625 30.179688 24.09375 30.15625 L 716.117188 24.703125 C 722.558594 24.617188 726.3125 34.644531 722.460938 41.761719 " fill-opacity="1" fill-rule="nonzero"/></g></svg>