<svg xmlns="http://www.w3.org/2000/svg" xmlns:xlink="http://www.w3.org/1999/xlink" width="1000" zoomAndPan="magnify" viewBox="0 0 750 722.249982" height="963" preserveAspectRatio="xMidYMid meet" version="1.0"><defs><clipPath id="3eba394acb"><path d="M 9.464844 82 L 643.824219 82 L 643.824219 721.5 L 9.464844 721.5 Z M 9.464844 82 " clip-rule="nonzero"/></clipPath><clipPath id="e9b862a9e3"><path d="M 105.082031 82 L 740.398438 82 L 740.398438 721.5 L 105.082031 721.5 Z M 105.082031 82 " clip-rule="nonzero"/></clipPath><clipPath id="1eccd6f815"><path d="M 9.464844 5.597656 L 740.398438 5.597656 L 740.398438 473 L 9.464844 473 Z M 9.464844 5.597656 " clip-rule="nonzero"/></clipPath></defs><g clip-path="url(#3eba394acb)"><path fill="#723fa3" d="M 255.984375 335.957031 C 255.757812 335.957031 255.519531 335.957031 255.519531 335.957031 L 48.191406 332.921875 C 26.5 332.683594 9.007812 314.726562 9.472656 293.03125 C 9.710938 271.570312 27.429688 254.3125 48.882812 254.3125 C 49.121094 254.3125 49.355469 254.3125 49.355469 254.3125 L 256.6875 257.347656 C 278.378906 257.574219 295.867188 275.535156 295.40625 297.230469 C 295.167969 318.6875 277.4375 335.957031 255.984375 335.957031 Z M 473.582031 721.550781 C 459.589844 721.550781 446.058594 714.078125 438.835938 701.023438 L 339.945312 518.835938 C 329.6875 499.710938 336.683594 475.917969 355.804688 465.421875 C 374.925781 455.152344 398.714844 462.148438 409.207031 481.285156 L 508.101562 663.460938 C 518.359375 682.589844 511.359375 706.390625 492.238281 716.886719 C 486.410156 719.910156 479.875 721.550781 473.582031 721.550781 Z M 493.167969 257.347656 L 565.941406 256.179688 L 637.765625 142.34375 C 649.199219 123.910156 643.832031 99.652344 625.410156 87.988281 C 606.980469 76.5625 582.730469 81.921875 571.070312 100.355469 L 464.71875 269.238281 C 464.253906 270.175781 463.789062 271.105469 463.324219 271.808594 C 470.320312 263.179688 481.042969 257.574219 493.167969 257.347656 " fill-opacity="1" fill-rule="nonzero"/></g><g clip-path="url(#e9b862a9e3)"><path fill="#4da4e0" d="M 493.871094 335.957031 C 472.414062 335.957031 454.921875 318.6875 454.457031 297.230469 C 454.222656 275.535156 471.484375 257.574219 493.167969 257.347656 L 700.269531 254.3125 C 722.425781 254.074219 739.917969 271.34375 740.152344 293.03125 C 740.382812 314.726562 723.128906 332.683594 701.4375 332.921875 L 494.335938 335.957031 C 494.105469 335.957031 494.105469 335.957031 493.871094 335.957031 Z M 183.6875 256.179688 L 256.6875 257.347656 C 268.585938 257.574219 279.078125 262.941406 286.074219 271.34375 C 285.839844 270.640625 285.375 270.175781 285.136719 269.476562 L 178.792969 100.582031 C 167.132812 82.15625 142.871094 76.5625 124.453125 88.226562 C 106.023438 99.890625 100.429688 124.144531 112.089844 142.570312 Z M 339.945312 518.835938 C 334.578125 508.574219 333.886719 497.140625 337.382812 487.117188 C 337.148438 487.34375 336.910156 487.808594 336.910156 488.046875 L 241.765625 663.460938 C 231.496094 682.589844 238.492188 706.617188 257.617188 716.886719 C 263.445312 719.910156 269.976562 721.550781 276.273438 721.550781 C 290.265625 721.550781 303.792969 714.078125 311.027344 701.023438 L 374.925781 583.222656 L 339.945312 518.835938 " fill-opacity="1" fill-rule="nonzero"/></g><g clip-path="url(#1eccd6f815)"><path fill="#f2ee11" d="M 374.699219 266.441406 C 368.394531 266.441406 361.871094 264.808594 356.042969 261.773438 C 336.910156 251.515625 329.914062 227.488281 340.179688 208.359375 L 439.0625 26.171875 C 449.328125 7.046875 473.34375 0.0507812 492.476562 10.308594 C 511.597656 20.578125 518.59375 44.597656 508.328125 63.734375 L 409.445312 245.910156 C 402.210938 258.976562 388.691406 266.441406 374.699219 266.441406 Z M 222.40625 408.972656 C 228.699219 399.167969 238.265625 393.105469 248.761719 391.238281 C 248.523438 391.238281 248.285156 391.238281 248.285156 391.238281 C 248.285156 391.238281 248.058594 391.238281 247.820312 391.238281 L 48.191406 394.035156 C 26.5 394.273438 9.246094 412.234375 9.472656 433.929688 C 9.9375 455.386719 27.429688 472.648438 48.882812 472.648438 C 48.882812 472.648438 49.121094 472.648438 49.355469 472.648438 L 183.457031 470.789062 Z M 701.671875 394.035156 L 502.03125 391.238281 C 502.03125 391.238281 501.804688 391.238281 501.566406 391.238281 C 501.566406 391.238281 501.566406 391.238281 501.332031 391.238281 C 511.597656 393.105469 521.390625 399.402344 527.457031 408.972656 L 566.40625 470.789062 L 700.507812 472.648438 C 700.507812 472.648438 700.734375 472.648438 700.972656 472.648438 C 722.425781 472.648438 740.152344 455.386719 740.382812 433.929688 C 740.855469 412.234375 723.363281 394.273438 701.671875 394.035156 " fill-opacity="1" fill-rule="nonzero"/></g><path fill="#ee217f" d="M 145.203125 644.800781 C 137.980469 644.800781 130.746094 642.933594 124.214844 638.742188 C 105.792969 627.078125 100.429688 602.8125 111.851562 584.386719 L 222.40625 408.972656 C 234.066406 390.539062 258.316406 385.171875 276.746094 396.605469 C 295.167969 408.269531 300.535156 432.527344 289.101562 450.960938 L 178.558594 626.375 C 171.097656 638.265625 158.269531 644.800781 145.203125 644.800781 Z M 604.648438 644.800781 C 591.59375 644.800781 578.765625 638.265625 571.296875 626.375 L 460.753906 450.960938 C 449.09375 432.527344 454.6875 408.269531 473.117188 396.605469 C 491.539062 384.941406 515.796875 390.539062 527.457031 408.972656 L 638 584.386719 C 649.664062 602.8125 644.070312 627.078125 625.640625 638.742188 C 619.105469 642.933594 611.882812 644.800781 604.648438 644.800781 Z M 340.179688 208.359375 L 374.925781 144.4375 L 310.792969 26.171875 C 300.296875 7.046875 276.511719 0.0507812 257.386719 10.308594 C 238.265625 20.804688 231.269531 44.597656 241.527344 63.734375 L 336.683594 239.148438 C 337.148438 240.078125 337.613281 241.019531 338.3125 241.710938 C 334.113281 231.214844 334.351562 219.085938 340.179688 208.359375 " fill-opacity="1" fill-rule="nonzero"/></svg>