<svg xmlns="http://www.w3.org/2000/svg" xmlns:xlink="http://www.w3.org/1999/xlink" width="40" zoomAndPan="magnify" viewBox="0 0 30 30.000001" height="40" preserveAspectRatio="xMidYMid meet" version="1.0"><defs><g/><clipPath id="e8c1dcc2d5"><path d="M 0.484375 0 L 29.515625 0 L 29.515625 29.03125 L 0.484375 29.03125 Z M 0.484375 0 " clip-rule="nonzero"/></clipPath><clipPath id="9394689fe6"><path d="M 0.484375 0 L 29.515625 0 L 29.515625 29.03125 L 0.484375 29.03125 Z M 0.484375 0 " clip-rule="nonzero"/></clipPath><clipPath id="c854b9391b"><rect x="0" width="30" y="0" height="30"/></clipPath></defs><g clip-path="url(#e8c1dcc2d5)"><g transform="matrix(1, 0, 0, 1, 0, 0.000000000000005692)"><g clip-path="url(#c854b9391b)"><g clip-path="url(#9394689fe6)"><g fill="#335dff" fill-opacity="1"><g transform="translate(-1.931195, 32.934801)"><g><path d="M 10.921875 -14.578125 L 10.921875 0 L 2.640625 0 L 2.640625 -36.359375 L 10.921875 -36.359375 L 10.921875 -21.859375 L 22.640625 -21.859375 L 22.640625 -36.359375 L 30.9375 -36.359375 L 30.9375 0 L 22.640625 0 L 22.640625 -14.578125 Z M 10.921875 -14.578125 "/></g></g></g></g></g></g></g></svg>