<svg xmlns="http://www.w3.org/2000/svg" xmlns:xlink="http://www.w3.org/1999/xlink" width="250" zoomAndPan="magnify" viewBox="0 0 187.5 44.999999" height="60" preserveAspectRatio="xMidYMid meet" version="1.0"><defs><g/></defs><g fill="#335dff" fill-opacity="1"><g transform="translate(-1.841779, 36.562538)"><g><path d="M 8.15625 -10.890625 L 8.15625 0 L 1.96875 0 L 1.96875 -27.140625 L 8.15625 -27.140625 L 8.15625 -16.328125 L 16.90625 -16.328125 L 16.90625 -27.140625 L 23.09375 -27.140625 L 23.09375 0 L 16.90625 0 L 16.90625 -10.890625 Z M 8.15625 -10.890625 "/></g></g></g><g fill="#335dff" fill-opacity="1"><g transform="translate(20.0119, 36.562538)"><g><path d="M 15.765625 -27.140625 L 26.71875 0 L 20.078125 0 L 18.0625 -5.421875 L 7.734375 -5.421875 L 5.71875 0 L -0.921875 0 L 10.03125 -27.140625 Z M 15.953125 -10.859375 L 12.9375 -18.75 L 12.859375 -18.75 L 9.84375 -10.859375 Z M 15.953125 -10.859375 "/></g></g></g><g fill="#335dff" fill-opacity="1"><g transform="translate(41.536444, 36.562538)"><g><path d="M 16.421875 -5.59375 C 17.359375 -5.59375 18.269531 -5.734375 19.15625 -6.015625 C 20.050781 -6.304688 20.707031 -6.582031 21.125 -6.84375 L 21.75 -7.265625 L 24.390625 -2 C 24.296875 -1.9375 24.171875 -1.847656 24.015625 -1.734375 C 23.867188 -1.628906 23.515625 -1.425781 22.953125 -1.125 C 22.390625 -0.832031 21.789062 -0.578125 21.15625 -0.359375 C 20.519531 -0.140625 19.6875 0.0546875 18.65625 0.234375 C 17.625 0.410156 16.5625 0.5 15.46875 0.5 C 12.945312 0.5 10.554688 -0.117188 8.296875 -1.359375 C 6.035156 -2.597656 4.210938 -4.300781 2.828125 -6.46875 C 1.441406 -8.644531 0.75 -11 0.75 -13.53125 C 0.75 -15.4375 1.15625 -17.265625 1.96875 -19.015625 C 2.78125 -20.773438 3.859375 -22.28125 5.203125 -23.53125 C 6.554688 -24.78125 8.132812 -25.773438 9.9375 -26.515625 C 11.738281 -27.265625 13.582031 -27.640625 15.46875 -27.640625 C 17.21875 -27.640625 18.832031 -27.429688 20.3125 -27.015625 C 21.800781 -26.597656 22.851562 -26.179688 23.46875 -25.765625 L 24.390625 -25.140625 L 21.75 -19.875 C 21.59375 -20.007812 21.359375 -20.164062 21.046875 -20.34375 C 20.742188 -20.53125 20.128906 -20.773438 19.203125 -21.078125 C 18.285156 -21.390625 17.359375 -21.546875 16.421875 -21.546875 C 14.929688 -21.546875 13.59375 -21.304688 12.40625 -20.828125 C 11.21875 -20.347656 10.28125 -19.710938 9.59375 -18.921875 C 8.90625 -18.128906 8.378906 -17.273438 8.015625 -16.359375 C 7.648438 -15.453125 7.46875 -14.53125 7.46875 -13.59375 C 7.46875 -11.53125 8.238281 -9.679688 9.78125 -8.046875 C 11.332031 -6.410156 13.546875 -5.59375 16.421875 -5.59375 Z M 16.421875 -5.59375 "/></g></g></g><g fill="#335dff" fill-opacity="1"><g transform="translate(63.093904, 36.562538)"><g><path d="M 26.6875 0 L 18.171875 0 L 8.15625 -11.515625 L 8.15625 0 L 1.96875 0 L 1.96875 -27.140625 L 8.15625 -27.140625 L 8.15625 -16.0625 L 17.46875 -27.140625 L 24.96875 -27.140625 L 14.046875 -14.28125 Z M 26.6875 0 "/></g></g></g><g fill="#335dff" fill-opacity="1"><g transform="translate(85.770383, 36.562538)"><g><path d="M 17.5 -27.140625 L 17.5 -21.71875 L 8.15625 -21.71875 L 8.15625 -16.328125 L 17.109375 -16.328125 L 17.109375 -10.890625 L 8.15625 -10.890625 L 8.15625 -5.421875 L 17.5 -5.421875 L 17.5 0 L 1.96875 0 L 1.96875 -27.140625 Z M 17.5 -27.140625 "/></g></g></g><g fill="#335dff" fill-opacity="1"><g transform="translate(101.634039, 36.562538)"><g><path d="M 1.96875 -27.140625 L 9.84375 -27.140625 C 13.613281 -27.140625 16.835938 -25.851562 19.515625 -23.28125 C 22.191406 -20.707031 23.53125 -17.476562 23.53125 -13.59375 C 23.53125 -9.6875 22.195312 -6.441406 19.53125 -3.859375 C 16.863281 -1.285156 13.632812 0 9.84375 0 L 1.96875 0 Z M 8.15625 -5.53125 L 9.109375 -5.53125 C 11.367188 -5.53125 13.21875 -6.289062 14.65625 -7.8125 C 16.09375 -9.34375 16.820312 -11.257812 16.84375 -13.5625 C 16.84375 -15.863281 16.125 -17.78125 14.6875 -19.3125 C 13.25 -20.851562 11.390625 -21.625 9.109375 -21.625 L 8.15625 -21.625 Z M 8.15625 -5.53125 "/></g></g></g><g fill="#335dff" fill-opacity="1"><g transform="translate(122.701101, 36.562538)"><g/></g></g><g fill="#335dff" fill-opacity="1"><g transform="translate(128.460728, 36.562538)"><g/></g></g><g fill="#c5221f" fill-opacity="1"><g transform="translate(131.431729, 36.562538)"><g><path d="M 22.796875 0 L 18.453125 -15.234375 L 14.109375 0 L 7.234375 0 L -0.5 -27.140625 L 6.390625 -27.140625 L 11.03125 -8.515625 L 11.1875 -8.515625 L 16.125 -27.140625 L 20.796875 -27.140625 L 25.734375 -8.515625 L 25.890625 -8.515625 L 30.53125 -27.140625 L 37.375 -27.140625 L 29.65625 0 Z M 22.796875 0 "/></g></g></g><g fill="#c5221f" fill-opacity="1"><g transform="translate(165.10087, 36.562538)"><g><path d="M 1.96875 -27.140625 L 11.875 -27.140625 C 14.644531 -27.140625 16.882812 -26.425781 18.59375 -25 C 20.300781 -23.582031 21.15625 -21.507812 21.15625 -18.78125 C 21.15625 -16.0625 20.285156 -13.925781 18.546875 -12.375 C 16.816406 -10.832031 14.59375 -10.0625 11.875 -10.0625 L 8.15625 -10.0625 L 8.15625 0 L 1.96875 0 Z M 8.15625 -15 L 9.90625 -15 C 11.289062 -15 12.425781 -15.28125 13.3125 -15.84375 C 14.195312 -16.40625 14.640625 -17.320312 14.640625 -18.59375 C 14.640625 -19.882812 14.195312 -20.8125 13.3125 -21.375 C 12.425781 -21.9375 11.289062 -22.21875 9.90625 -22.21875 L 8.15625 -22.21875 Z M 8.15625 -15 "/></g></g></g></svg>